<svg xmlns="http://www.w3.org/2000/svg" width="156" height="25" viewBox="0 0 156 25">
  <g id="logo" transform="translate(-1049 -229)">
    <g id="Grupo_2" data-name="Grupo 2" transform="translate(173.792 -298)">
      <g id="pencil-square" transform="translate(876.208 528)">
        <path id="Trazado_80" data-name="Trazado 80" d="M895.928,530.263a.786.786,0,0,1,0,1.107l-1.638,1.643-3.148-3.148,1.631-1.638a.789.789,0,0,1,1.107,0l2.036,2.036Zm-2.75,3.872-3.149-3.148L879.3,541.706a.828.828,0,0,0-.19.314l-1.26,3.8a.394.394,0,0,0,.493.492l3.8-1.268a.745.745,0,0,0,.314-.188Z" transform="translate(-873.105 -528)" fill="#333"/>
        <path id="Trazado_81" data-name="Trazado 81" d="M874.208,548.278a2.362,2.362,0,0,0,2.362,2.362h17.317a2.361,2.361,0,0,0,2.362-2.359v-9.448a.788.788,0,0,0-1.575,0v9.445a.785.785,0,0,1-.784.788H876.57a.786.786,0,0,1-.788-.785v-17.32a.787.787,0,0,1,.788-.786H886.8a.787.787,0,1,0,0-1.574H876.57a2.362,2.362,0,0,0-2.362,2.36Z" transform="translate(-874.208 -527.817)" fill="#333" fill-rule="evenodd"/>
      </g>
      <g id="DvNotes" transform="translate(909.115 528.13)" style="isolation: isolate">
        <g id="Grupo_1" data-name="Grupo 1" style="isolation: isolate">
          <path id="Trazado_1" data-name="Trazado 1" d="M919.338,539.057q0,5.534-3.018,8.458t-8.658,2.926h-6.22V528.1h6.878q5.211,0,8.114,2.865T919.338,539.057Zm-2.964.093q0-4.264-2.1-6.457t-6.35-2.193h-3.667v17.528H907.3Q916.372,548.028,916.374,539.15Z" transform="translate(-901.442 -528.1)" fill="#333"/>
          <path id="Trazado_2" data-name="Trazado 2" d="M922.987,549.144l-6.357-16.778h2.95l3.56,9.888a35.478,35.478,0,0,1,1.345,4.446h.123c.031-.132.069-.282.115-.45s.1-.352.16-.55.438-1.347,1.131-3.445l3.576-9.888h2.934l-6.372,16.778Z" transform="translate(-896.823 -526.803)" fill="#333"/>
          <path id="Trazado_3" data-name="Trazado 3" d="M948.861,550.442h-3.285L933.61,531.89h-.123l.077,1.239q.184,2.78.184,4.829v12.484h-2.6V528.1h3.256l.687,1.085,7.336,11.339,3.9,6.067h.123q-.031-.366-.123-2.62t-.091-3.263V528.1h2.628Z" transform="translate(-892.409 -528.1)" fill="#333"/>
          <path id="Trazado_4" data-name="Trazado 4" d="M963.888,540.8a9.249,9.249,0,0,1-2.079,6.417,7.338,7.338,0,0,1-5.746,2.308,7.642,7.642,0,0,1-4.035-1.063,6.951,6.951,0,0,1-2.7-3.049,10.588,10.588,0,0,1-.948-4.614,9.226,9.226,0,0,1,2.047-6.381,7.32,7.32,0,0,1,5.747-2.285,7.182,7.182,0,0,1,5.631,2.33A9.157,9.157,0,0,1,963.888,540.8Zm-12.669,0a7.86,7.86,0,0,0,1.245,4.806,4.906,4.906,0,0,0,7.328,0,7.823,7.823,0,0,0,1.253-4.806,7.585,7.585,0,0,0-1.261-4.761,4.421,4.421,0,0,0-3.691-1.6Q951.219,534.439,951.219,540.8Z" transform="translate(-887.17 -526.874)" fill="#333"/>
          <path id="Trazado_5" data-name="Trazado 5" d="M969.721,548.1a8.587,8.587,0,0,0,1.253-.107,5.722,5.722,0,0,0,1.085-.244v2.109a6.135,6.135,0,0,1-1.184.329,8.274,8.274,0,0,1-1.628.16q-4.922,0-4.922-5.181V535.4h-2.368v-1.313l2.4-1.1,1.1-3.576h1.635v3.851h4.843V535.4h-4.843v9.689a3.236,3.236,0,0,0,.7,2.23A2.453,2.453,0,0,0,969.721,548.1Z" transform="translate(-883.04 -527.701)" fill="#333"/>
          <path id="Trazado_6" data-name="Trazado 6" d="M979.624,549.522a7.732,7.732,0,0,1-5.922-2.285,8.814,8.814,0,0,1-2.146-6.288,9.691,9.691,0,0,1,2-6.427,6.689,6.689,0,0,1,5.409-2.392,6.523,6.523,0,0,1,5.043,2.041,7.836,7.836,0,0,1,1.88,5.524v1.665H974.4a6.43,6.43,0,0,0,1.453,4.34,5.051,5.051,0,0,0,3.9,1.483,13.253,13.253,0,0,0,2.552-.237,14.61,14.61,0,0,0,2.827-.925v2.415a13.36,13.36,0,0,1-2.613.84A14.9,14.9,0,0,1,979.624,549.522Zm-.687-15.144a3.99,3.99,0,0,0-3.118,1.269,5.951,5.951,0,0,0-1.36,3.53H983a5.449,5.449,0,0,0-1.085-3.576A3.723,3.723,0,0,0,978.937,534.378Z" transform="translate(-880.121 -526.874)" fill="#333"/>
          <path id="Trazado_7" data-name="Trazado 7" d="M996.983,544.586a4.262,4.262,0,0,1-1.758,3.645,8.212,8.212,0,0,1-4.936,1.291,11.156,11.156,0,0,1-5.272-1.055v-2.506a12.171,12.171,0,0,0,5.334,1.346,5.315,5.315,0,0,0,3.026-.673,2.106,2.106,0,0,0,.948-1.8,2.044,2.044,0,0,0-.91-1.68,14.2,14.2,0,0,0-3.232-1.574,18.4,18.4,0,0,1-3.332-1.568,4.36,4.36,0,0,1-1.414-1.459,4.005,4.005,0,0,1-.451-1.97,3.785,3.785,0,0,1,1.681-3.256,7.861,7.861,0,0,1,4.615-1.192,12.769,12.769,0,0,1,5.349,1.132l-.932,2.184a12.055,12.055,0,0,0-4.6-1.069,5.039,5.039,0,0,0-2.6.543,1.671,1.671,0,0,0-.887,1.491,1.862,1.862,0,0,0,.764,1.521,16.449,16.449,0,0,0,3.56,1.673,15.5,15.5,0,0,1,3.095,1.451,4.561,4.561,0,0,1,1.475,1.513A4.05,4.05,0,0,1,996.983,544.586Z" transform="translate(-876.038 -526.874)" fill="#333"/>
        </g>
      </g>
    </g>
    <rect id="Rectángulo_2" data-name="Rectángulo 2" width="156" height="25" transform="translate(1049 229)" fill="none"/>
  </g>
</svg>
